<svg height="160" viewBox="0 0 375 160" width="375" xmlns="http://www.w3.org/2000/svg" xmlns:xlink="http://www.w3.org/1999/xlink"><defs><linearGradient id="a" x1="50%" x2="50%" y1="0%" y2="92.732349%"><stop offset="0" stop-color="#ffede9"/><stop offset="1" stop-color="#fff"/></linearGradient><path id="b" d="m0 0h375v284h-375z"/><linearGradient id="c" x1="63.17227%" x2="36.592482%" y1="79.855202%" y2="53.320789%"><stop offset="0" stop-color="#fff6f4"/><stop offset="1" stop-color="#ffe0de"/></linearGradient><linearGradient id="d" x1="50%" x2="50%" y1="2.205791%" y2="100%"><stop offset="0" stop-color="#fff8f6" stop-opacity="0"/><stop offset="1" stop-color="#fff8f6"/></linearGradient><mask id="e" fill="#fff"><use fill="#fff" fill-rule="evenodd" xlink:href="#b"/></mask></defs><g fill="none" fill-rule="evenodd" transform="translate(0 -1)"><use fill="url(#a)" xlink:href="#b"/><g fill="url(#c)" mask="url(#e)"><path d="m203.768594 5.11328605c.914627 1.44355108 1.40101 3.11682246 1.40101 4.82554451v175.18584244c0 5.136092-2.623349 9.91626-6.956838 12.674321l-147.8349451 94.093155c-1.117405.710432-2.0646467 1.66051-2.77366 2.779333-2.6006608 4.10235-1.4761657 9.503614 2.4858006 12.238987l.3020396.199942 147.7966579 93.673419c4.346252 2.755226 6.980945 7.543901 6.980945 12.68992v29.435396c0 4.978692-4.035703 9.014395-9.014395 9.014395-1.708722 0-3.381993-.484965-4.825544-1.40101l-183.50540433-116.32214c-4.34625153-2.755226-6.97952692-7.542483-6.97952692-12.688502v-190.206998c0-5.146018 2.63469342-9.934694 6.98094494-12.68992l183.50398631-116.28952525c4.204449-2.66589 9.774457-1.41660857 12.438929 2.7878403zm-85.165968 272.50132095 82.378837 52.211739c2.607751 1.653419 4.187432 4.526341 4.187432 7.613385v25.121759c0 4.978692-4.035703 9.014395-9.012977 9.014395-1.71014 0-3.383411-.486383-4.826962-1.40101l-102.1787428-64.772619c-4.2044489-2.664472-5.4523123-8.23448-2.7878403-12.438929.7118493-1.123077 1.6633452-2.074573 2.7850042-2.786423l19.8013239-12.560879c2.945241-1.868959 6.705847-1.868959 9.653925-.001418zm56.889242-37.561114 25.489028 16.156995c2.607751 1.653419 4.18885 4.526341 4.18885 7.613385v25.229529c0 4.977273-4.035703 9.014395-9.014395 9.014395-1.708722 0-3.381993-.486383-4.825544-1.40101l-45.393868-28.768924c-4.205867-2.66589-5.45373-8.23448-2.789258-12.440347.711849-1.123077 1.664763-2.075991 2.78784-2.787841l19.904839-12.616182c2.94666-1.867541 6.705848-1.867541 9.652508 0z" transform="matrix(0 1 -1 0 608.210938 -11)"/></g><g fill="url(#c)" mask="url(#e)" opacity=".4"><path d="m203.536286 5.1084896c.91358 1.44189849 1.399406 3.11325431 1.399406 4.82002021v174.98528819c0 5.130213-2.620346 9.904908-6.948874 12.659812l-147.6657029 93.985437c-1.1161257.709618-2.0622831 1.658608-2.7704847 2.77615-2.5976836 4.097655-1.4744758 9.492735 2.4829548 12.224976l.3016939.199713 147.6274599 93.566182c4.341276 2.752071 6.972953 7.535265 6.972953 12.675392v29.401698c0 4.972992-4.031083 9.004076-9.004075 9.004076-1.706766 0-3.378122-.48441-4.82002-1.399407l-183.29532654-116.188973c-4.34127591-2.752072-6.97153671-7.533849-6.97153671-12.673976v-189.989248c0-5.140128 2.6316772-9.923321 6.97295312-12.675393l183.29391013-116.15639615c4.199635-2.66283808 9.763267-1.41498683 12.424689 2.78464875zm-85.06847 272.1893594 82.284529 52.151967c2.604766 1.651526 4.182639 4.521159 4.182639 7.604669v25.093c0 4.972992-4.031084 9.004075-9.002659 9.004075-1.708182 0-3.379538-.485826-4.821437-1.399406l-102.0617675-64.698467c-4.1996356-2.661422-5.4460704-8.225054-2.7846487-12.424689.7110344-1.121792 1.661441-2.072198 2.7818159-2.783233l19.7786543-12.546499c2.94187-1.86682 6.698171-1.86682 9.642874-.001417zm56.824114-37.518114 25.459849 16.138499c2.604765 1.651526 4.184055 4.521159 4.184055 7.604669v25.200646c0 4.971576-4.031084 9.004076-9.004076 9.004076-1.706766 0-3.378121-.485827-4.82002-1.399407l-45.3419-28.735989c-4.201052-2.662838-5.447487-8.225053-2.786065-12.426105.711034-1.121792 1.662857-2.073615 2.784648-2.784649l19.882053-12.60174c2.943286-1.865403 6.698171-1.865403 9.641456 0z" transform="matrix(0 -1 1 0 -264.5 213.5)"/></g><path d="m0 117h376v50h-376z" fill="url(#d)" mask="url(#e)" transform="matrix(-1 0 0 1 376 0)"/></g></svg>