<svg xmlns="http://www.w3.org/2000/svg" width="450" height="450" viewBox="0 0 450 450"><rect width="100%" height="100%" fill="#e81c1c" shape-rendering="geometricPrecision"/><path d="M92 85a6 6 0 013.212.932l122.142 77.425a10 10 0 014.646 8.446v106.602a10 10 0 01-4.647 8.447L95.212 364.255A6 6 0 0186 359.187v-96.604a10 10 0 014.63-8.437l98.4-62.628a6 6 0 00.192-9.996l-.201-.134-98.374-62.35A10 10 0 0186 110.593V91a6 6 0 016-6zm271.068 2.6a6 6 0 01.932 3.213v96.604a10 10 0 01-4.63 8.437l-98.4 62.628a6 6 0 00-.192 9.996l.201.134 98.374 62.35a10 10 0 014.647 8.446V359a6 6 0 01-9.212 5.068l-122.142-77.425a10 10 0 01-4.646-8.446V171.595a10 10 0 014.647-8.447l122.141-77.403a6 6 0 018.28 1.856zM306.38 248.98l54.832 34.751A6 6 0 01364 288.8v16.721a6 6 0 01-9.212 5.068l-68.011-43.113a6 6 0 01-.002-10.134l13.18-8.36a6 6 0 016.425-.002zm37.866-25.002l16.966 10.754A6 6 0 01364 239.8v16.792a6 6 0 01-9.212 5.068l-30.215-19.149a6 6 0 010-10.136l13.249-8.397a6 6 0 016.424 0zM92 185.408a6 6 0 013.212.932l30.215 19.149a6 6 0 010 10.136l-13.249 8.397a6 6 0 01-6.424 0l-16.966-10.754A6 6 0 0186 208.2v-16.792a6 6 0 016-6zm0-47.928a6 6 0 013.212.932l68.011 43.113a6 6 0 01.002 10.134l-13.18 8.36a6 6 0 01-6.425.002l-54.832-34.752A6 6 0 0186 160.2V143.48a6 6 0 016-6z" fill="#FFF" fill-rule="evenodd"/></svg>