<svg height="12" viewBox="0 0 15 12" width="15" xmlns="http://www.w3.org/2000/svg"><g fill="none" fill-rule="evenodd"><path d="m1.5 0h12c.8284271 0 1.5.67157288 1.5 1.5v9c0 .8284271-.6715729 1.5-1.5 1.5h-12c-.82842712 0-1.5-.6715729-1.5-1.5v-9c0-.82842712.67157288-1.5 1.5-1.5z" fill="#ced1d6"/><path d="m8.3904344 3.98804301 2.9596876 3.69960947c.1725048.21563096.1375441.53027715-.0780869.70278192-.0886565.07092522-.1988118.1095656-.3123475.1095656h-5.91937518c-.27614237 0-.5-.22385763-.5-.5 0-.11353575.03864038-.223691.1095656-.31234752l2.95968758-3.69960947c.17250477-.21563097.48715096-.25059166.70278192-.07808689.02883236.02306589.055021.04925453.07808688.07808689z" fill="#fff" transform="matrix(0 1 -1 0 14 -2)"/></g></svg>