<?xml version="1.0" encoding="UTF-8"?>
<svg width="420px" height="420px" viewBox="0 0 420 420" version="1.1" xmlns="http://www.w3.org/2000/svg" xmlns:xlink="http://www.w3.org/1999/xlink">
    <title>画板</title>
    <g id="画板" stroke="none" stroke-width="1" fill="none" fill-rule="evenodd">
        <g id="编组-4备份" transform="translate(71.000000, 54.000000)" fill="#DE2E23">
            <g id="左" transform="translate(0.000000, 1.000000)">
                <path d="M6,-1.7507773e-11 C7.13738049,-1.7507773e-11 8.25133363,0.323281645 9.21201044,0.932161313 L131.353886,78.3568672 C134.246882,80.1907133 136,83.3776639 136,86.802926 L136,213.405272 C136,216.830972 134.246438,220.018266 131.352846,221.85199 L9.21201044,299.254965 L9.21201044,299.254965 C6.41312041,301.028909 2.70610569,300.198027 0.932161313,297.399137 C0.323281645,296.43846 0,295.324507 0,294.187126 L0,177.582537 C0,174.163798 1.74649449,170.981974 4.63061562,169.146322 L103.03046,106.517924 C103.774299,106.044494 104.404654,105.41294 104.87667,104.668202 C106.607346,101.937577 105.858709,98.3425867 103.222111,96.5215639 L103.020836,96.3883546 L4.64665539,34.0386217 C1.75334923,32.204839 0,29.0177097 0,25.59222 L0,6 C0,2.6862915 2.6862915,-1.7507773e-11 6,-1.7507773e-11 Z" id="路径"></path>
                <path d="M9.21238849,53.4123643 L77.2232068,96.5249246 C80.0219645,98.2990778 80.8525705,102.006155 79.0784174,104.804912 C78.6048058,105.552043 77.9718498,106.185207 77.2248752,106.659065 L64.045617,115.019578 C62.0843911,116.263719 59.5812872,116.264227 57.6195572,115.020881 L2.7879971,80.2685978 C1.05201119,79.1683286 -2.97263513e-13,77.2560497 -2.98427949e-13,75.2007543 L-2.98427949e-13,58.4799634 C-2.96169226e-13,55.1662549 2.6862915,52.4799634 6,52.4799634 C7.13753271,52.4799634 8.25162855,52.8033315 9.21238849,53.4123643 Z" id="路径"></path>
                <path d="M9.21187084,101.339717 L39.4267154,120.488804 C42.2256543,122.262671 43.056639,125.969663 41.2827717,128.768602 C40.8086907,129.516642 40.1748933,130.150459 39.4268675,130.624562 L26.1781338,139.021693 C24.2170795,140.264621 21.7149453,140.264582 19.7539297,139.021592 L2.78781884,128.267622 C1.05193497,127.167332 -2.39430185e-12,125.255112 -2.38742359e-12,123.199892 L-2.38742359e-12,106.407644 C-2.38960576e-12,103.093936 2.6862915,100.407644 6,100.407644 C7.13732429,100.407644 8.25122473,100.730894 9.21187084,101.339717 Z" id="路径"></path>
            </g>
            <g id="右" transform="translate(210.000000, 150.500000) scale(-1, -1) translate(-210.000000, -150.500000) translate(142.000000, 0.000000)">
                <path d="M6,-1.7507773e-11 C7.13738049,-1.7507773e-11 8.25133363,0.323281645 9.21201044,0.932161313 L131.353886,78.3568672 C134.246882,80.1907133 136,83.3776639 136,86.802926 L136,213.405272 C136,216.830972 134.246438,220.018266 131.352846,221.85199 L9.21201044,299.254965 L9.21201044,299.254965 C6.41312041,301.028909 2.70610569,300.198027 0.932161313,297.399137 C0.323281645,296.43846 0,295.324507 0,294.187126 L0,177.582537 C0,174.163798 1.74649449,170.981974 4.63061562,169.146322 L103.03046,106.517924 C103.774299,106.044494 104.404654,105.41294 104.87667,104.668202 C106.607346,101.937577 105.858709,98.3425867 103.222111,96.5215639 L103.020836,96.3883546 L4.64665539,34.0386217 C1.75334923,32.204839 0,29.0177097 0,25.59222 L0,6 C0,2.6862915 2.6862915,-1.7507773e-11 6,-1.7507773e-11 Z" id="路径"></path>
                <path d="M9.21238849,54.4123643 L77.2232068,97.5249246 C80.0219645,99.2990778 80.8525705,103.006155 79.0784174,105.804912 C78.6048058,106.552043 77.9718498,107.185207 77.2248752,107.659065 L64.045617,116.019578 C62.0843911,117.263719 59.5812872,117.264227 57.6195572,116.020881 L2.7879971,81.2685978 C1.05201119,80.1683286 -2.97263513e-13,78.2560497 -2.98427949e-13,76.2007543 L-2.98427949e-13,59.4799634 C-2.96169226e-13,56.1662549 2.6862915,53.4799634 6,53.4799634 C7.13753271,53.4799634 8.25162855,53.8033315 9.21238849,54.4123643 Z" id="路径"></path>
                <path d="M9.21187084,103.339717 L39.4267154,122.488804 C42.2256543,124.262671 43.056639,127.969663 41.2827717,130.768602 C40.8086907,131.516642 40.1748933,132.150459 39.4268675,132.624562 L26.1781338,141.021693 C24.2170795,142.264621 21.7149453,142.264582 19.7539297,141.021592 L2.78781884,130.267622 C1.05193497,129.167332 -2.39430185e-12,127.255112 -2.38742359e-12,125.199892 L-2.38742359e-12,108.407644 C-2.38960576e-12,105.093936 2.6862915,102.407644 6,102.407644 C7.13732429,102.407644 8.25122473,102.730894 9.21187084,103.339717 Z" id="路径"></path>
            </g>
        </g>
    </g>
</svg>