<svg width="68" height="68" viewBox="0 0 68 68" xmlns="http://www.w3.org/2000/svg" xmlns:xlink="http://www.w3.org/1999/xlink"><defs><path d="M33.678 0c18.596 0 33.678 15.082 33.678 33.678 0 18.596-15.082 33.712-33.678 33.712C15.082 67.39 0 52.308 0 33.678 0 15.082 15.082 0 33.678 0z" id="a"/></defs><g fill="none" fill-rule="evenodd"><mask id="b" fill="#fff"><use xlink:href="#a"/></mask><use fill="#EBEBEB" fill-rule="nonzero" xlink:href="#a"/><g mask="url(#b)" fill-rule="nonzero"><path d="M23.884 16.903c.054 0 .054-.056.108-.056 0 0-.054.056-.108.056zm9.802-2.856h-1.068c.184 0 .331 0 .515.055.222-.055.369-.055.553-.055zm-3.243 9.794c-3.169 5.564-8.55 10.502-13.782 7.26.332 8.844 7.591 15.956 16.51 15.956 8.954 0 16.214-7.112 16.509-15.957-4.349 2.69-15.81-1.253-19.237-7.26zm-6.006-7.334c.073-.037.11-.074.184-.11-.037.036-.11.073-.184.11z" fill="#FFF"/><path d="M39.95 47.978c.075.054.148.054.222.108-.11-.054-.147-.108-.221-.108m-11.682-.452c.074 0 .11-.055.184-.055-.037 0-.11.055-.184.055m-1.953.516c.037 0 .074-.055.11-.055-.036 0-.073 0-.11.055m14.483.194c.036 0 .11.037.147.037a11.25 11.25 0 01-.7 1.51c1.179 1.807.884 9.693-.885 8.44l-3.095-2.174-3.096-2.175.221-.147h-.442l.221.147-3.095 2.175-3.096 2.174c-1.769 1.253-2.063-6.67-.884-8.476a8.005 8.005 0 01-.7-1.51c.037 0 .073-.038.11-.038-6.117 2.138-10.576 6.781-12.345 12.972a34.944 34.944 0 0020.01 6.265 34.944 34.944 0 0020.01-6.265c-1.768-6.154-6.264-10.797-12.381-12.935m-2.912-.765c.074 0 .148.055.221.055-.073 0-.147-.055-.22-.055m-7.703-.277c.074 0 .185-.055.258-.055-.073.055-.184.055-.258.055m5.75-.018c.073 0 .183.055.257.055-.074-.055-.184-.055-.258-.055" fill="#BFBFBF"/><path d="M26.132 49.82c.22-.368.516-.478.884-.22l3.096 2.174 2.874 2.027h.442l2.875-2.027 3.095-2.174c.369-.258.663-.148.885.22.294-.478.516-.994.7-1.51l-.148-.037-.663-.221c-.074-.037-.147-.037-.221-.074a16.096 16.096 0 00-1.806-.442c-.073 0-.147-.037-.22-.037a23.372 23.372 0 00-1.696-.258c-.074 0-.184-.037-.258-.037-.332-.037-.627-.073-.958-.11h-3.538a74.43 74.43 0 00-.958.11c-.074 0-.184.037-.258.037-.59.074-1.142.148-1.732.295-.074 0-.11.037-.184.037-.627.147-1.253.295-1.843.479-.037 0-.073.037-.11.037a6.36 6.36 0 00-.774.258c-.037 0-.074.037-.11.037.073.442.33.958.626 1.437z" fill="#FDFDFD"/><path d="M39.361 49.6l-3.095 2.174L33.39 53.8l-.22.147 3.095 2.174 3.095 2.175c1.77 1.253 2.064-6.634.885-8.44-.221-.405-.516-.515-.885-.257zm-12.345 0c-.368-.258-.663-.148-.884.22-1.18 1.806-.885 9.693.884 8.477l3.096-2.175 3.095-2.174-.221-.147-2.874-2.027-3.096-2.174zM30.443 23.84c3.39 6.007 14.851 9.95 19.237 7.223.295-5.564-2.175-9.986-5.639-12.934a17.572 17.572 0 00-4.237-2.69c-2.064-.922-4.201-1.4-6.155-1.4-.184 0-.368 0-.552.036.626 1.99-.516 6.044-2.654 9.766z" fill="#939393"/><path d="M30.443 23.84c2.138-3.721 3.28-7.775 2.69-9.802-.184 0-.331 0-.515-.037-2.506-.037-5.38.774-7.997 2.359-.074.037-.11.073-.184.11-.148.11-.332.221-.48.332-.036 0-.036.037-.073.037-4.238 2.874-7.592 7.775-7.223 14.188h.037c5.196 3.316 10.576-1.622 13.745-7.186z" fill="#AAA"/></g></g></svg>